<svg xmlns="http://www.w3.org/2000/svg" viewBox="0 0 11.54 39.74"><defs><style>.cls-1{fill:#e0d5c6;}</style></defs><title>arrow</title><g id="Шар_2" data-name="Шар 2"><g id="Layer_11" data-name="Layer 11"><path class="cls-1" d="M3.78,25.93a2,2,0,0,1,2-2h0a2,2,0,0,1,2,2h0a2,2,0,0,1-2,2h0A2,2,0,0,1,3.78,25.93Zm0-8a2,2,0,0,1,2-2h0a2,2,0,0,1,2,2h0a2,2,0,0,1-2,2h0A2,2,0,0,1,3.78,18Zm0-8a2,2,0,0,1,2-2h0a2,2,0,0,1,2,2h0a2,2,0,0,1-2,2h0A2,2,0,0,1,3.78,10Zm0-8a2,2,0,0,1,2-2h0a2,2,0,0,1,2,2h0a2,2,0,0,1-2,2h0A2,2,0,0,1,3.78,2Z"/><polygon class="cls-1" points="0 29.75 5.77 39.74 11.54 29.75 0 29.75"/></g></g></svg>