<svg xmlns="http://www.w3.org/2000/svg" viewBox="0 0 1293 78.8"><defs><style>.cls-1{fill:#6fa5ce;}</style></defs><title>footer_second_1</title><g id="Шар_2" data-name="Шар 2"><g id="Layer_8" data-name="Layer 8"><path class="cls-1" d="M1293,45.6c-65,0-98-6.61-130-13C1130.62,26.12,1100,20,1037,20s-93.63,6.12-126,12.61c-32,6.38-65,13-130,13s-98-6.61-130-13C618.62,26.12,588,20,525,20s-93.62,6.12-126,12.61C367,39,334,45.6,269,45.6s-98-6.61-130-13C106.62,26.12,76,20,13,20V0c65,0,98,6.61,130,13,32.41,6.49,63,12.61,126,12.61S362.62,19.48,395,13C427,6.61,460,0,525,0s98,6.61,130,13c32.42,6.49,63,12.61,126,12.61S874.62,19.48,907,13C939,6.61,972,0,1037,0s98,6.61,130,13c32.41,6.49,63,12.61,126,12.61Z"/><polygon class="cls-1" points="0 6.8 45 6.8 114 15.8 140 20.8 189 31.8 234 31.8 287 31.8 339 31.8 391 20.8 449.17 12.8 506 6.8 543 6.8 589.37 10.8 629.83 15.8 674 26.8 706.47 31.8 758.93 36.8 812.77 30.8 871 28.8 913.4 20.8 973.12 6.8 1020 6.8 1079 6.8 1136.78 15.8 1185.44 21.8 1240 29.8 1277 30.8 1293 30.8 1293 78.8 0 78.8 0 6.8"/></g></g></svg>