<svg xmlns="http://www.w3.org/2000/svg" viewBox="0 0 1293 80.8"><defs><style>.cls-1{fill:#778750;}</style></defs><title>bottomРесурс 5</title><g id="Шар_2" data-name="Шар 2"><g id="Layer_1" data-name="Layer 1"><path class="cls-1" d="M1289,45.6c-65,0-98-6.61-130-13C1126.62,26.12,1096,20,1033,20s-93.63,6.12-126,12.61c-32,6.38-65,13-130,13s-98-6.61-130-13C614.62,26.12,584,20,521,20s-93.62,6.12-126,12.61C363,39,330,45.6,265,45.6s-98-6.61-130-13C102.62,26.12,72,20,9,20V0c65,0,98,6.61,130,13,32.41,6.49,63,12.61,126,12.61S358.62,19.48,391,13C423,6.61,456,0,521,0s98,6.61,130,13c32.42,6.49,63,12.61,126,12.61S870.62,19.48,903,13C935,6.61,968,0,1033,0s98,6.61,130,13c32.41,6.49,63,12.61,126,12.61Z"/><polygon class="cls-1" points="0 8.8 45 8.8 114 17.8 140 22.8 189 33.8 234 33.8 287 33.8 339 33.8 391 22.8 449.17 14.8 506 8.8 543 8.8 589.37 12.8 629.83 17.8 674 28.8 706.47 33.8 758.93 38.8 812.77 32.8 871 30.8 913.4 22.8 973.12 8.8 1020 8.8 1079 8.8 1136.78 17.8 1185.44 23.8 1240 31.8 1277 32.8 1293 32.8 1293 80.8 0 80.8 0 8.8"/></g></g></svg>