<svg xmlns="http://www.w3.org/2000/svg" viewBox="0 0 782.36 158.95"><defs><style>.cls-1{fill:#fff;}</style></defs><title>logo1Ресурс 2</title><g id="Шар_2" data-name="Шар 2"><g id="Шар_1-2" data-name="Шар 1"><g id="Шар_2-2" data-name="Шар 2"><g id="Layer_1" data-name="Layer 1"><path class="cls-1" d="M59.16,57.42a27.63,27.63,0,0,0-6.47,17c0,14.27,7.23,25.39,20.16,25.39,17.13,0,20.47-20,20.47-29.4V67.22h0a31.74,31.74,0,0,0,13.39-6.15h0c.22,9.5.44,18.68.44,22.85,0,13.15.76,14.72,4.46,14.72s5.71-8.83,9.32-17.41C125.17,70.62,129.63,60,132.35,60c5.13,0-4.1,39.19,8.21,39.19,8.7,0,21.63-39.75,27.25-39.75,4.46,0-4.46,39.75,5.18,39.75,7.09,0,19.18-40.61,23.28-40.61s-4.46,40.61,8.07,40.61c11.29,0,20.48-33.25,23.6-33.25,1.52,0,4.46,4.46,6.29,10.56h0a29.31,29.31,0,0,0-6.42,14.92c-.09,4.12,2.78,7.54,6.4,7.63h.55c5.22,0,10.35-6.35,10.35-15.59a42.42,42.42,0,0,0-2.05-12.39h0c7.81-8.22,17.84-15.23,24-16.6-3.48,4.52-9.81,8.48-9.81,21.38-.25,13.23,9,24.18,20.6,24.46h.63C295.29,100.32,298.9,80,298.9,72a32.08,32.08,0,0,0-.89-7.82h0c5.71-3.1,10-7.36,11.64-7.36,3.48,0,2.1,12,2.1,24.47,0,9.29-1.25,18.93,4.86,18.93,4.46,0,6.83-10.15,11.42-19.54s9.32-21.32,11.2-21.32S340.7,78.33,340.7,82c0,4.67-.72,19.39,7.71,19.39,5.71,0,16.42-18.22,16.42-20.66,0-1.27,0-1.52-.89-1.52s-7.5,12.18-10.08,12.18c-3.75,0-1.39-15.69-1.39-27.31,0-5.08.63-16.4-6.82-16.4-9.46,0-18.65,30.46-21.5,30.46S328.12,49,316.3,49c-4.82,0-11.95,7.46-19.72,11.27h0c-2.37-5.78-7.42-9.53-13-9.7-3.29-.17-6.1,2.67-6.33,6.4.3,6,4.79,10.52,10,10.18l.27,0a18.13,18.13,0,0,0,5.8-1.11h0a26.48,26.48,0,0,1,1.07,6.7c0,7.51-4.46,17.26-13.07,17.26-6.69,0-12.67-8.07-12.67-18,0-16.1,8.57-18.79,8.57-22,0-1.42-1-1.72-2.86-1.72-9.59,0-22.75,9-32.65,19.44h0q-.51-1-1.11-2c-9.55-15.58-5.85-19-8.3-19s-17,43.15-22.3,43.15c-7.18,0,6-41.58-8.08-41.58C190.87,48.28,184.54,81,180.3,81s4.11-32.69-7.8-32.69c-8.57,0-21.37,39-26.77,39-4.72,0,4.46-38.48-6.6-38.48S120.53,79,117.9,79,116,69.5,116,52.24h0a63.45,63.45,0,0,0,14.41-38.53c0-6.35-2.72-11.32-8-11.32-10.17,0-16.15,18.42-16.15,38.63,0,4.42,0,10.15.22,15.84h0a22.61,22.61,0,0,1-11.73,6H92.48c-1.61-7-7-12.12-13.38-12.59-3.43.12-6.22,3.17-6.47,7.06,0,4.82,3.75,9.9,15.52,10.15h0a28.73,28.73,0,0,1,.45,5.08c0,7.51-4.82,17.71-13.38,17.71-7.45,0-13-9.64-13-20.3a24.86,24.86,0,0,1,7.94-18.79c0-.55,0-1.16-.36-1.16C61.88,50.06,49,60.21,36.9,74.32h0A352.07,352.07,0,0,1,34,32,87.42,87.42,0,0,1,37.79,2c0-1.42-.35-2-2.5-2C30.57,0,0,15.69,0,50.77-.37,69.18,7.69,86.49,21.29,96.46h0C12.37,111.69,6,128.19,6,142.71,6,150.88,8.84,159,14.2,159c8.43,0,24.57-20.31,24.57-62.09a173.15,173.15,0,0,0-1.42-18.78h0A113.73,113.73,0,0,1,59.11,57.77Zm650.05,4.26h0c-1.56-3.5-3.79-6.19-6.51-6.19A2.73,2.73,0,0,0,700.38,58c0,2.59,2.1,4.11,5.31,4.11a16.11,16.11,0,0,0,3.52-.41ZM440.48,93.56c1.56-2.53,3.16-5.07,4.86-7.41h0a231.54,231.54,0,0,1-4.46-33.05c0-25,9.59-42.85,9.59-46.65,0-2.59.35-3-1.25-3s-23,10.61-23,48.08c0,15.23,6.15,33.61,13.91,42.24Zm-1.74,2.85c-3.08-2.69-6-7.26-10.35-10.72-3.66-2.84-13.38.26-21.86,2h0c-.76,5.53-2.41,11-4.1,11s-1.56-4.36-2.94-9.49h0a54.21,54.21,0,0,1-8.93,1.32c-5.84,0-19.26-2.95-19.26-13,0-5.68,5.57-7.92,10.92-7.92,6.07,0,15.79,5.08,18.16,10.16.62-9.6-5.49-14.83-5.49-16.4s6.6-4.37,7.23-4.37c2.58,0,4.81,13.56,4.81,23.2v1.37h0a61,61,0,0,1,18.47-2.38,57.3,57.3,0,0,1-7.81-30.46c0-34.83,30.47-50.52,35.15-50.52,2.14,0,2.63.56,2.63,2a85,85,0,0,0-4,30,354.33,354.33,0,0,0,3,42.34h0c12.14-14.37,25-24.27,32.92-24.27.27,0,.36.56.36,1.17a24.81,24.81,0,0,0-7.94,18.78c0,10.61,5.71,20.31,13.38,20.31,8.47,0,13.38-10.16,13.38-17.72a28.76,28.76,0,0,0-.49-5.08h0c-11.82-.3-15.57-5.38-15.57-10.15.28-3.94,3.14-7,6.6-7.06,6.29.57,11.57,5.63,13.12,12.59h2.27a22.5,22.5,0,0,0,11.78-6h0V41.27c0-20.3,6-38.63,16.19-38.63,5.22,0,7.94,5.08,7.94,11.32a63.35,63.35,0,0,1-14.54,38.43h0c0,17.26-.58,26.7,1.6,26.7s10.84-30.15,21.28-30.15,2,38.48,6.56,38.48c5.62,0,18.42-39,27-39,11.91,0,3.75,32.69,7.81,32.69s10.57-32.69,21.63-32.69c14.05,0,.89,41.58,8.07,41.58,5.49,0,19.41-43.15,22.31-43.15s-1.25,3.4,8.29,19a16,16,0,0,1,1.12,2h0c9.63-10.5,23-19.54,32.56-19.54,1.74,0,2.72.3,2.72,1.72,0,3.25-8.57,5.94-8.57,22,0,9.9,6,18,12.67,18,8.61,0,13.07-9.75,13.07-17.26a26,26,0,0,0-1-6.7h0a17.66,17.66,0,0,1-5.66,1c-5.25.57-9.91-3.8-10.41-9.78l0-.37c.26-3.72,3.06-6.55,6.34-6.4,5.58.17,10.6,3.9,13,9.65h0c7.76-3.81,14.89-11.22,19.67-11.22,11.82,0,5.08,29.14,7.85,29.14s12-30.46,21.5-30.46c7.44,0,6.82,11.32,6.82,16.4,0,11.62-2.36,27.31,1.38,27.31,2.59,0,9.19-12.29,10-12.29s1,0,1,1.53c0,2.43-10.7,20.66-16.54,20.66-8.43,0-7.72-14.72-7.72-19.4,0-3.65,1-22.59-1.47-22.59s-6.74,12.29-11.2,21.33S738.61,100,734,100c-6.11,0-4.86-9.64-4.86-18.94,0-12.48,1.39-24.46-2.09-24.46-1.61,0-5.94,4.26-11.6,7.36h0a31.12,31.12,0,0,1,.89,7.76c0,7.92-3.61,28.28-20.38,28.28-11.63.12-21.14-10.52-21.24-23.75,0-.24,0-.48,0-.72,0-12.89,6.33-16.85,9.94-21.37-6.2,1.17-16.32,8.37-24.13,16.6h0a40.6,40.6,0,0,1,2.05,12.84c0,9.24-5.13,15.59-10.34,15.59-3.62.25-6.73-2.88-7-7,0-.21,0-.42,0-.63a29.56,29.56,0,0,1,6.42-15h0c-2-6.09-5-10.61-6.33-10.61-3.08,0-12.18,33.25-23.6,33.25-12.58,0-3.88-40.61-8.07-40.61s-16.19,40.61-23.15,40.61c-9.81,0-1-39.75-5.31-39.75-5.62,0-18.55,39.75-27.25,39.75-12.27,0-3.08-39.19-8.16-39.19-2.77,0-7.23,10.61-11.47,21.22-3.61,8.48-5.71,17.41-9.54,17.41s-4.46-1.57-4.46-14.72c0-4.16,0-13.35-.45-22.85h0a32,32,0,0,1-13.38,6.15h0c.05,1,.05,2.1,0,3.14,0,9.45-3.39,29.4-20.52,29.4-12.93,0-20-11.17-20-25.39a27.6,27.6,0,0,1,6.34-17,114,114,0,0,0-21.77,20.3h0A170.08,170.08,0,0,1,456,96.46c0,41.73-16,62.09-24.57,62.09-5.36,0-8.21-8.08-8.21-16.25,0-14.52,6.38-31.12,15.3-46.2Zm214.1-15.79h0a19.54,19.54,0,0,0-3.44,9.64c0,2.8.54,4.52,2,4.52s2.59-2,2.59-4.67A42.49,42.49,0,0,0,652.84,80.62ZM533.3,46.45h0A53.92,53.92,0,0,0,542.62,16c0-5.94-.36-9.34-3.12-9.34-7,0-6.29,29.55-6.2,40Zm-28.86,16.4h0C503.1,59.3,501,56.5,498.1,56.5a1.79,1.79,0,0,0-1.94,1.71,2.45,2.45,0,0,0,0,.27c0,3.15,3.93,4.12,8.3,4.42ZM446.05,89.76h0c-9.59,14.36-16.72,31.07-16.72,47,0,5.07,0,13,6.33,13,7.8,0,13.38-13.3,13.38-31.83a189.65,189.65,0,0,0-2.85-28.07Zm-47.77-4.22h0c-1.79-6.9-7.33-11.66-13.65-11.72-2.14,0-3.25,2.08-3.25,4.67,0,4.67,6.46,7.61,12.44,7.61a24.72,24.72,0,0,0,4.46-.46ZM291.86,61.68a16.77,16.77,0,0,1-3.53.41C285,62.09,283,60.56,283,58a2.71,2.71,0,0,1,2.36-2.54c2.72,0,5,2.69,6.52,6.19Zm-56.52,19a40.92,40.92,0,0,1,1.07,9.44c0,2.69-1.25,4.67-2.58,4.67s-2-1.72-2-4.52a19.67,19.67,0,0,1,3.39-9.59ZM116,46.4c0-10.46-.8-39.9,6.2-39.9,2.72,0,3.13,3.4,3.13,9.34A54.21,54.21,0,0,1,116,46.3ZM87,62.85c-4.46-.31-8.3-1.27-8.3-4.42a1.88,1.88,0,0,1,1.73-2h.24C83.56,56.45,85.65,59.25,87,62.85Zm-59,23.45c-1.7,2.44-3.35,5.08-4.91,7.47h0c-7.76-8.84-14.1-27.32-14.1-42.44,0-37.47,22-48.08,23.15-48.08s1.12.41,1.12,3c0,3.81-9.46,21.63-9.46,46.66A233,233,0,0,0,28,86h0ZM28.56,90a185,185,0,0,1,2.9,28.12c0,18.53-5.49,31.83-13.38,31.83-6.34,0-6.34-7.76-6.34-13,0-15.89,7.14-32.59,16.73-47Z"/></g></g></g></g></svg>